<?xml version="1.0" encoding="UTF-8"?>
<svg id="Calque_1" data-name="Calque 1" xmlns="http://www.w3.org/2000/svg" viewBox="0 0 2899.34 1080">
  <path d="M1018.17,750.82c-71.25,158.48-214.7,269.36-388.01,294.1C204.74,1105.65-114.71,665.25,94.14,286.84c2.25-4.07,5.5-12.29,9.74-13.83-5.91,26.72-14.51,52.45-18.99,79.6C11.71,796.88,490.13,1119.01,875.13,881.45c55.93-34.51,100.82-81.01,143.03-130.63Z" style="fill: #6a9614;"/>
  <path d="M1001.49,289.66c-34.92-34.04-70.23-66.93-113.08-91.12-112.22-63.32-253.94-65.32-369.52-9.38-184.4,89.25-270.58,300.44-203.8,494.98-125.92-175.39-81.54-422.87,92.04-548.37C609.33-10.42,899.22,62.7,1001.49,289.66Z" style="fill: #6a9614;"/>
  <path d="M587.45,31.27c-95.45-2.07-191.92,49.91-261.26,112.5-135.49,122.3-173.79,325.65-92.16,489.48,45.89,92.1,129.14,179.96,231.13,206.5-.02,5.26-11.67,2.77-14.93,2.41-121.49-13.44-247.59-117.74-299.6-225.55C12.53,330.4,234.55,4.52,549.91,22.99c9.87.58,31.77,1.44,37.54,8.28Z" style="fill: #85cc15;"/>
  <path d="M822.99,341.35h-342.31l110.43,87.9h147.93v215.9s1.56,123.06-136.89,120.31c-107.26-2.13-122.06-79.64-123.29-114.45l-86.79-71.33v71.33c3.95,51.12,30.51,202.9,207.34,202.9,227.53,0,227.53-208.76,227.53-208.76v-303.8h-3.94Z" style="fill: #6a9614;"/>
  <polygon points="898.17 592.95 659.71 592.95 659.71 170.32 571.81 102.48 571.81 592.95 571.81 680.84 659.71 680.84 1009.51 680.84 1009.51 678.48 898.17 592.95" style="fill: #85cc15;"/>
  <g>
    <path d="M1207.4,612.59V239.46h47.26v330.84h129.35v42.29h-176.6Z" style="fill: #375110;"/>
    <path d="M1537.81,615.9c-17.14,0-33.16-3.32-48.09-9.95-14.93-6.63-28.13-15.82-39.59-27.57-11.48-11.74-20.38-25.29-26.74-40.63-6.36-15.34-9.53-31.85-9.53-49.54s3.17-34.2,9.53-49.54c6.36-15.34,15.27-28.88,26.74-40.63,11.46-11.74,24.67-20.94,39.59-27.57,14.93-6.64,30.95-9.95,48.09-9.95s33.24,3.18,48.3,9.53c15.06,6.36,28.12,15.21,39.18,26.53v-32.75h41.46v248.75h-41.46v-32.75c-11.05,11.05-24.11,19.83-39.18,26.33-15.06,6.49-31.17,9.74-48.3,9.74ZM1543.62,575.27c15.75,0,30.06-3.94,42.91-11.82,12.85-7.88,23.08-18.38,30.67-31.51,7.6-13.12,11.4-27.71,11.4-43.74s-3.81-30.61-11.4-43.74c-7.6-13.12-17.82-23.63-30.67-31.51-12.85-7.88-27.16-11.82-42.91-11.82s-30.06,3.94-42.91,11.82c-12.86,7.88-23.08,18.38-30.68,31.51-7.6,13.13-11.4,27.71-11.4,43.74s3.8,30.62,11.4,43.74c7.6,13.13,17.82,23.63,30.68,31.51,12.85,7.88,27.15,11.82,42.91,11.82Z" style="fill: #375110;"/>
    <path d="M2031.17,615.9c-17.13,0-33.16-3.32-48.09-9.95-14.93-6.63-28.12-15.82-39.59-27.57-11.47-11.74-20.39-25.29-26.74-40.63-6.36-15.34-9.54-31.85-9.54-49.54s3.18-34.2,9.54-49.54c6.35-15.34,15.27-28.88,26.74-40.63,11.47-11.74,24.67-20.94,39.59-27.57,14.93-6.64,30.96-9.95,48.09-9.95s33.23,3.18,48.29,9.53c15.06,6.36,28.12,15.21,39.18,26.53v-32.75h41.46v248.75h-41.46v-32.75c-11.05,11.05-24.11,19.83-39.18,26.33-15.06,6.49-31.16,9.74-48.29,9.74ZM2036.97,575.27c15.75,0,30.06-3.94,42.91-11.82,12.85-7.88,23.07-18.38,30.68-31.51,7.6-13.12,11.4-27.71,11.4-43.74s-3.81-30.61-11.4-43.74c-7.61-13.12-17.83-23.63-30.68-31.51-12.86-7.88-27.16-11.82-42.91-11.82s-30.06,3.94-42.91,11.82c-12.85,7.88-23.08,18.38-30.67,31.51-7.6,13.13-11.4,27.71-11.4,43.74s3.8,30.62,11.4,43.74c7.6,13.13,17.82,23.63,30.67,31.51,12.86,7.88,27.16,11.82,42.91,11.82Z" style="fill: #375110;"/>
    <path d="M2330.08,625.03l-125.21-261.19h51l50.58,107.79c4.7,9.68,9.12,19.21,13.27,28.61,4.15,9.4,8.15,20.87,12.02,34.41,4.15-13.54,8.36-25.08,12.65-34.62,4.28-9.54,8.63-19,13.05-28.4l51-107.79h47.68l-125.21,261.19h-.83Z" style="fill: #375110;"/>
    <path d="M2782.79,612.59V239.46h44.78v373.13h-44.78Z" style="fill: #375110;"/>
    <path d="M2474.26,781.76h44.36v44.78h-44.36v-44.78Z" style="fill: #85cc15;"/>
    <path d="M2371.27,781.76h44.36v44.78h-44.36v-44.78Z" style="fill: #85cc15;"/>
    <path d="M2577.25,781.76h44.36v44.78h-44.36v-44.78Z" style="fill: #85cc15;"/>
    <path d="M2680.23,781.76h44.36v44.78h-44.36v-44.78Z" style="fill: #85cc15;"/>
    <path d="M2783.22,781.76h44.36v44.78h-44.36v-44.78Z" style="fill: #85cc15;"/>
    <g>
      <path d="M1205.16,812.84l12.87-22.42c5.4,5.19,12.45,9.96,22,9.96,13.08,0,21.59-8.93,21.59-22.21v-92.58h29.69v92.99c0,32.59-20.56,47.95-48.78,47.95-14.12,0-27.4-3.94-37.36-13.7Z" style="fill: #6a9614;"/>
      <path d="M1426.38,768.62v-83.03h29.9v82.2c0,19.3,11.21,32.59,32.58,32.59s32.39-13.28,32.39-32.59v-82.2h30.09v83.03c0,34.25-20.34,57.91-62.48,57.91s-62.48-23.66-62.48-57.91Z" style="fill: #6a9614;"/>
      <path d="M1718.58,824.05v-112.51h-40.48v-25.94h110.43v25.94h-40.27v112.51h-29.69Z" style="fill: #6a9614;"/>
      <path d="M1904.3,804.53l16.2-23.04c9.75,10.17,24.91,18.89,44,18.89,16.4,0,24.09-7.26,24.09-15.36,0-24.08-79.71-7.27-79.71-59.37,0-23.04,19.92-42.14,52.51-42.14,22,0,40.27,6.64,53.97,19.31l-16.4,22c-11.21-10.38-26.15-15.15-40.27-15.15-12.45,0-19.51,5.4-19.51,13.7,0,21.8,79.5,7.06,79.5,58.74,0,25.33-18.27,44.42-55.43,44.42-26.77,0-45.87-8.93-58.95-22Z" style="fill: #6a9614;"/>
      <path d="M2146.27,768.62v-83.03h29.9v82.2c0,19.3,11.2,32.59,32.58,32.59s32.38-13.28,32.38-32.59v-82.2h30.1v83.03c0,34.25-20.34,57.91-62.48,57.91s-62.48-23.66-62.48-57.91Z" style="fill: #6a9614;"/>
    </g>
    <path d="M1873.79,361.43c-19.53.22-36.47,4.49-50.74,12.98-14.66,8.71-26.4,20.38-35.24,35.03v-45.6h-41.46v248.75h44.77v-123.55c0-18.24,3.18-33.72,9.54-46.43,6.35-12.71,15.33-22.39,26.95-29.02,11.61-6.64,25.15-9.95,40.62-9.95,1.81,0,3.7.22,5.56.37v-42.57Z" style="fill: #375110;"/>
    <path d="M2706.11,419.39c-11.33-18.51-26.53-33.23-45.6-44.15-19.07-10.91-40.08-16.38-63.02-16.38-17.41,0-33.79,3.25-49.13,9.74-15.34,6.5-28.81,15.55-40.42,27.15-11.61,11.61-20.66,25.08-27.16,40.42-6.49,15.34-9.74,31.86-9.74,49.54s3.38,35.8,10.16,51.82c6.77,16.03,16.23,29.99,28.4,41.87,12.16,11.89,26.53,21.22,43.12,27.99,16.58,6.77,34.68,10.16,54.31,10.16,17.13,0,33.38-2.69,48.72-8.08,8.33-2.93,16.11-6.54,23.42-10.73v-56.57c-7.55,8.97-16.75,16.47-27.78,22.32-13.54,7.19-28.19,10.78-43.94,10.78s-30.13-3.38-43.12-10.16c-12.99-6.77-23.71-16.1-32.13-27.98-8.43-11.88-13.61-25.15-15.54-39.8,7.18,1.11,14.51,1.94,21.97,2.49,7.46.56,14.78.83,21.97.83h162.52v-18.24c0-23.49-5.67-44.5-17-63.02ZM2661.13,463.96c-5.95-.41-11.96-.62-18.04-.62h-82.5c-7.47,0-14.99.28-22.59.83-7.61.56-15.14,1.52-22.6,2.9,2.76-12.71,8.02-24.18,15.76-34.41,7.73-10.22,17.34-18.45,28.81-24.67,11.47-6.22,23.98-9.33,37.52-9.33s25.57,2.9,36.9,8.71c11.33,5.8,21.01,13.68,29.02,23.63,8.01,9.95,13.26,21.42,15.75,34.41-6.08-.55-12.09-1.04-18.03-1.45Z" style="fill: #375110;"/>
  </g>
</svg>