<?xml version="1.0" encoding="UTF-8" standalone="no"?>
<!-- Created with Inkscape (http://www.inkscape.org/) -->

<svg
   width="129.63058mm"
   height="227.54182mm"
   viewBox="0 0 129.63058 227.54182"
   version="1.1"
   id="svg1"
   xmlns="http://www.w3.org/2000/svg"
   xmlns:svg="http://www.w3.org/2000/svg">
  <defs
     id="defs1">
    <clipPath
       clipPathUnits="userSpaceOnUse"
       id="clipPath93">
      <path
         d="M 0,1080 H 1920 V 0 H 0 Z"
         transform="translate(-1396.5189,-847.72792)"
         id="path93" />
    </clipPath>
    <clipPath
       clipPathUnits="userSpaceOnUse"
       id="clipPath95">
      <path
         d="M 0,1080 H 1920 V 0 H 0 Z"
         transform="translate(-1374.5823,-823.50782)"
         id="path95" />
    </clipPath>
  </defs>
  <g
     id="layer1"
     transform="translate(-44.450002,-14.022916)">
    <g
       id="g134"
       transform="matrix(0.26458333,0,0,0.26458333,-215.5183,-45.127904)">
      <path
         id="path92"
         d="m 0,0 h -12.619 -22.823 v -13.211 h 22.823 V -45.66 c 0,0 0.234,-18.496 -20.574,-18.083 -16.121,0.32 -18.346,11.97 -18.531,17.202 h -13.044 c 0.593,-7.683 4.586,-30.496 31.163,-30.496 34.197,0 34.197,31.377 34.197,31.377 V 0 Z"
         style="fill:#6a9614;fill-opacity:1;fill-rule:nonzero;stroke:none"
         transform="matrix(7.4841954,0,0,-7.4841954,1468.0691,507.00284)"
         clip-path="url(#clipPath93)" />
      <path
         id="path94"
         d="M 0,0 H -29.724 V 62.092 H -42.935 V 0 -13.211 H -29.724 0 Z"
         style="fill:#85cc15;fill-opacity:1;fill-rule:nonzero;stroke:none"
         transform="matrix(7.4841954,0,0,-7.4841954,1303.8913,688.27082)"
         clip-path="url(#clipPath95)" />
    </g>
  </g>
</svg>
