<?xml version="1.0" encoding="UTF-8"?>
<svg id="Calque_1" data-name="Calque 1" xmlns="http://www.w3.org/2000/svg" viewBox="0 0 1051.12 1080">
  <path d="M1018.17,750.82c-71.25,158.48-214.7,269.36-388.01,294.1C204.74,1105.65-114.71,665.25,94.14,286.84c2.25-4.07,5.5-12.29,9.74-13.83-5.91,26.72-14.51,52.45-18.99,79.6C11.71,796.88,490.13,1119.01,875.13,881.45c55.93-34.51,100.82-81.01,143.03-130.63Z" style="fill: #6a9614;"/>
  <path d="M1001.49,289.66c-34.92-34.04-70.23-66.93-113.08-91.12-112.22-63.32-253.94-65.32-369.52-9.38-184.4,89.25-270.58,300.44-203.8,494.98-125.92-175.39-81.54-422.87,92.04-548.37C609.33-10.42,899.22,62.7,1001.49,289.66Z" style="fill: #6a9614;"/>
  <path d="M587.45,31.27c-95.45-2.07-191.92,49.91-261.26,112.5-135.49,122.3-173.79,325.65-92.16,489.48,45.89,92.1,129.14,179.96,231.13,206.5-.02,5.26-11.67,2.77-14.93,2.41-121.49-13.44-247.59-117.74-299.6-225.55C12.53,330.4,234.55,4.52,549.91,22.99c9.87.58,31.77,1.44,37.54,8.28Z" style="fill: #85cc15;"/>
  <path d="M822.99,341.35h-342.31l110.43,87.9h147.93v215.9s1.56,123.06-136.89,120.31c-107.26-2.13-122.06-79.64-123.29-114.45l-86.79-71.33v71.33c3.95,51.12,30.51,202.9,207.34,202.9,227.53,0,227.53-208.76,227.53-208.76v-303.8h-3.94Z" style="fill: #6a9614;"/>
  <polygon points="898.17 592.95 659.71 592.95 659.71 170.32 571.81 102.48 571.81 592.95 571.81 680.84 659.71 680.84 1009.51 680.84 1009.51 678.48 898.17 592.95" style="fill: #85cc15;"/>
</svg>