<svg xmlns="http://www.w3.org/2000/svg" width="296" height="166" fill="none"><g clip-path="url(#a)"><rect width="142" height="166" fill="url(#b)" fill-opacity=".4" rx="6"/><path fill="url(#c)" fill-opacity=".4" d="M135.5 121.4c-3.6-10-21-60.7-29.2-60.7S86 84.1 81.1 87.2C75.1 79.8 53.8 43 47.4 43c-6.4 0-32.1 54.6-36.9 68.4-7.4 21.4-5.7 26.6 5.2 26.6H41c21.4-.1 46.8-.2 69.6 0 19.8.2 26.8-6.2 24.9-16.6 0-4 1.1 6.2 0 0-.4-1.7.4 1.7 0 0Z"/><path fill="#E2E8F0" fill-opacity=".3" d="M130 21a9 9 0 1 1-18 0 9 9 0 0 1 18 0Z"/><g clip-path="url(#d)"><rect width="142" height="143" x="153.5" fill="url(#e)" fill-opacity=".1" rx="6"/><rect width="141" height="142" x="154" y=".5" stroke="url(#f)" stroke-dasharray="3 3" stroke-opacity=".5" rx="5.5"/><path fill="#fff" fill-opacity=".1" stroke="#fff" stroke-dasharray="3 3" stroke-opacity=".5" d="M283.5 20a9 9 0 1 1-18 0 9 9 0 0 1 18 0Z"/><path fill="url(#g)" fill-opacity=".4" d="M289 122.4c-3.6-10-21-60.7-29.2-60.7s-20.4 23.4-25.2 26.5c-6-7.4-27.3-44.2-33.7-44.2-6.4 0-32 54.6-36.9 68.4-7.4 21.4-5.7 26.6 5.2 26.6h25.3c21.5-.1 46.8-.2 69.6 0 19.8.2 26.8-6.2 25-16.6-.1-4 1 6.2 0 0-.5-1.7.3 1.7 0 0Z"/><path stroke="url(#h)" stroke-dasharray="3 3" stroke-opacity=".5" d="M289 122.4c-3.6-10-21-60.7-29.2-60.7s-20.4 23.4-25.2 26.5c-6-7.4-27.3-44.2-33.7-44.2-6.4 0-32 54.6-36.9 68.4-7.4 21.4-5.7 26.6 5.2 26.6h25.3c21.5-.1 46.8-.2 69.6 0 19.8.2 26.8-6.2 25-16.6Zm0 0c1.1 6.2 0-4 0 0Zm0 0c.4 1.7-.4-1.7 0 0Z"/></g><g clip-path="url(#i)" filter="url(#j)"><g filter="url(#k)"><rect width="28" height="28" x="134" y="62" fill="#fff" fill-opacity=".2" rx="6"/><rect width="27" height="27" x="134.5" y="62.5" stroke="#fff" stroke-opacity=".4" rx="5.5"/></g><path fill="#fff" d="m156.7 68.5-4.3 4.3h3a.8.8 0 0 1 0 1.6h-5a.8.8 0 0 1-.8-.8v-5a.8.8 0 0 1 1.4-.5l.3.6v2.9l4.2-4.3a.8.8 0 0 1 1.2 1.2Zm-11.1 9.1h-5a.8.8 0 0 0 0 1.7h3l-4.3 4.2a.8.8 0 0 0 0 1.2.8.8 0 0 0 1.2 0l4.3-4.3v3a.8.8 0 0 0 1.3.5l.3-.6v-4.9a.8.8 0 0 0-.8-.8Z"/></g></g><defs><radialGradient id="b" cx="0" cy="0" r="1" gradientTransform="matrix(0 253.644 -175.64 0 71 -96.6)" gradientUnits="userSpaceOnUse"><stop stop-color="#E2E8F0"/><stop offset="1" stop-color="#E2E8F0" stop-opacity="0"/></radialGradient><radialGradient id="c" cx="0" cy="0" r="1" gradientTransform="matrix(0 136.808 -151.548 0 71 -12.3)" gradientUnits="userSpaceOnUse"><stop stop-color="#E2E8F0"/><stop offset="1" stop-color="#E2E8F0" stop-opacity="0"/></radialGradient><radialGradient id="g" cx="0" cy="0" r="1" gradientTransform="matrix(0 136.808 -151.548 0 224.5 -11.3)" gradientUnits="userSpaceOnUse"><stop stop-color="#E2E8F0"/><stop offset="1" stop-color="#E2E8F0" stop-opacity="0"/></radialGradient><linearGradient id="e" x1="224.5" x2="224.5" y1="0" y2="65.1" gradientUnits="userSpaceOnUse"><stop stop-color="#E2E8F0"/><stop offset="1" stop-color="#E2E8F0" stop-opacity="0"/></linearGradient><linearGradient id="f" x1="224.5" x2="224.5" y1="0" y2="97.2" gradientUnits="userSpaceOnUse"><stop stop-color="#E2E8F0"/><stop offset="1" stop-color="#E2E8F0" stop-opacity="0"/></linearGradient><linearGradient id="h" x1="222.5" x2="225.9" y1="28.7" y2="112.4" gradientUnits="userSpaceOnUse"><stop stop-color="#E2E8F0"/><stop offset="1" stop-color="#E2E8F0" stop-opacity="0"/></linearGradient><clipPath id="a"><path fill="#fff" d="M0 0h296v166H0z"/></clipPath><clipPath id="d"><path fill="#fff" d="M153.5 0H296v143.2H153.5z"/></clipPath><clipPath id="i"><path fill="#fff" d="M134 62h28v28h-28z"/></clipPath><filter id="j" width="33.9" height="33.9" x="131.1" y="62" color-interpolation-filters="sRGB" filterUnits="userSpaceOnUse"><feFlood flood-opacity="0" result="BackgroundImageFix"/><feColorMatrix in="SourceAlpha" result="hardAlpha" values="0 0 0 0 0 0 0 0 0 0 0 0 0 0 0 0 0 0 127 0"/><feOffset dy="2.9"/><feGaussianBlur stdDeviation="1.5"/><feComposite in2="hardAlpha" operator="out"/><feColorMatrix values="0 0 0 0 0 0 0 0 0 0 0 0 0 0 0 0 0 0 0.44 0"/><feBlend in2="BackgroundImageFix" result="effect1_dropShadow_6289_8620"/><feBlend in="SourceGraphic" in2="effect1_dropShadow_6289_8620" result="shape"/></filter><filter id="k" width="88.6" height="88.6" x="103.7" y="31.7" color-interpolation-filters="sRGB" filterUnits="userSpaceOnUse"><feFlood flood-opacity="0" result="BackgroundImageFix"/><feGaussianBlur in="BackgroundImageFix" stdDeviation="15.1"/><feComposite in2="SourceAlpha" operator="in" result="effect1_backgroundBlur_6289_8620"/><feBlend in="SourceGraphic" in2="effect1_backgroundBlur_6289_8620" result="shape"/></filter></defs></svg>