<svg xmlns="http://www.w3.org/2000/svg" width="495" height="278" fill="none"><g clip-path="url(#a)"><rect width="495" height="278" fill="url(#b)" fill-opacity=".4" rx="8"/><g fill="#E2E8F0" opacity=".2"><circle cx="20" cy="20.4" r="4"/><circle cx="33" cy="20.4" r="4"/><circle cx="46" cy="20.4" r="4"/></g><rect width="216" height="5" x="56" y="59.4" fill="url(#c)" fill-opacity=".4" opacity=".5" rx="2.5"/><rect width="135" height="5" x="56" y="77.4" fill="url(#d)" fill-opacity=".4" opacity=".3" rx="2.5"/><rect width="135" height="5" x="56" y="173.4" fill="#E2E8F0" fill-opacity=".4" opacity=".3" rx="2.5"/><rect width="75" height="5" x="56" y="191.4" fill="#E2E8F0" fill-opacity=".4" opacity=".3" rx="2.5"/><rect width="35" height="5" x="56" y="209.4" fill="#E2E8F0" fill-opacity=".4" opacity=".3" rx="2.5"/><rect width="35" height="5" x="56" y="95.4" fill="#E2E8F0" fill-opacity=".4" opacity=".3" rx="2.5"/><rect width="135" height="5" x="199" y="173.4" fill="url(#e)" fill-opacity=".4" opacity=".3" rx="2.5"/><rect width="75" height="5" x="139" y="191.4" fill="url(#f)" fill-opacity=".4" opacity=".3" rx="2.5"/><rect width="35" height="5" x="99" y="209.4" fill="url(#g)" fill-opacity=".4" opacity=".3" rx="2.5"/><rect width="35" height="5" x="99" y="95.4" fill="url(#h)" fill-opacity=".4" opacity=".3" rx="2.5"/></g><defs><linearGradient id="c" x1="64.6" x2="272" y1="64.4" y2="64.4" gradientUnits="userSpaceOnUse"><stop stop-color="#E2E8F0"/><stop offset="1" stop-color="#E2E8F0" stop-opacity="0"/></linearGradient><linearGradient id="d" x1="61.4" x2="191" y1="82.4" y2="82.4" gradientUnits="userSpaceOnUse"><stop stop-color="#E2E8F0"/><stop offset="1" stop-color="#E2E8F0" stop-opacity="0"/></linearGradient><linearGradient id="e" x1="204.4" x2="334" y1="178.4" y2="178.4" gradientUnits="userSpaceOnUse"><stop stop-color="#E2E8F0"/><stop offset="1" stop-color="#E2E8F0" stop-opacity="0"/></linearGradient><linearGradient id="f" x1="142" x2="214" y1="196.4" y2="196.4" gradientUnits="userSpaceOnUse"><stop stop-color="#E2E8F0"/><stop offset="1" stop-color="#E2E8F0" stop-opacity="0"/></linearGradient><linearGradient id="g" x1="100.4" x2="134" y1="214.4" y2="214.4" gradientUnits="userSpaceOnUse"><stop stop-color="#E2E8F0"/><stop offset="1" stop-color="#E2E8F0" stop-opacity="0"/></linearGradient><linearGradient id="h" x1="100.4" x2="134" y1="100.4" y2="100.4" gradientUnits="userSpaceOnUse"><stop stop-color="#E2E8F0"/><stop offset="1" stop-color="#E2E8F0" stop-opacity="0"/></linearGradient><radialGradient id="b" cx="0" cy="0" r="1" gradientTransform="matrix(0 424.777 -612.266 0 247.5 -161.8)" gradientUnits="userSpaceOnUse"><stop stop-color="#E2E8F0"/><stop offset="1" stop-color="#E2E8F0" stop-opacity="0"/></radialGradient><clipPath id="a"><path fill="#fff" d="M0 0h495v278H0z"/></clipPath></defs><script xmlns=""/></svg>