<?xml version="1.0" encoding="utf-8"?><!-- Uploaded to: SVG Repo, www.svgrepo.com, Generator: SVG Repo Mixer Tools -->
<svg fill="#000000" width="800px" height="800px" viewBox="-7.09 0 100 100" xmlns="http://www.w3.org/2000/svg">
  <path id="book2" d="M1000.929,455.1c-11.7.44-23.727.153-35.445,0-1.765-.461-3.426-1.022-5.154-1.519-.225-1.283-1.738-1.285-2.423-2.117.137-4.259-.178-8.473,0-12.725.1-2.37.407-4.672.305-6.966-.1-2.245-.421-4.412-.608-6.668-1.125-13.57.061-27.785,0-42.112.751-2.783.121-6.945,1.519-9.086,1.714-.4,1.5,1.118,2.422,1.515,3.118-2.233,9.234-1.474,13.631-2.424h8.482a4.681,4.681,0,0,1,3.635.909c-.259-2.887.448-4.805.912-6.97,2.291-.938,6.082-.377,8.48-1.21,1.651.105,3.463.049,5.276-.005,4.127-.126,8.255-.252,10.481,1.52.892,2.038.614,5.239.911,7.874a63.852,63.852,0,0,0,7.875-1.209c3.3-.167,5.468-.467,6.968,1.515.133,2.761-.883,4.37-1.215,6.664v8.483c2.188,14.8,1.236,31.466.911,47.564-.368,1.883,1.453,1.577,1.514,3.029.085,1.3-.925,1.5-.6,3.03.041,1.576.564,2.667.6,4.242.041,1.255-.688,1.733-1.21,2.422.2,1.309-.522,1.7-.91,2.426a42.594,42.594,0,0,1-4.241.6c-.757.252-1.189.831-2.12.911-.3.713-1.748.272-2.122.909-1.922-.04-3.906.052-5.882.144-1.649.076-3.292.153-4.886.153A22.765,22.765,0,0,1,1000.929,455.1Zm5.151-6.364h9.391c1.247-.771,1.315-2.722,2.725-3.331.437-1.586,2.043-2,2.73-3.334a5.824,5.824,0,0,0,1.817-1.21c.742-.268,1.748-.274,1.818-1.213-.542-17.132-.786-34.564-2.424-50.594-3.469-1.984-6.818-4.091-6.058-10.3a9.362,9.362,0,0,0-1.066,0,2.974,2.974,0,0,1-1.966-.3c-.519.738.307,2.161,0,3.635v13.632c.164,1.174-.54,1.479-.3,2.727-.3,2.73.86,6.922-1.214,7.876-2.737-.292-3.608-2.445-5.755-3.333-1.219-2.009-3.133-3.325-4.544-5.149-1.172.04-1.2,1.229-2.12,1.514a15.7,15.7,0,0,1-2.121,1.513,52.637,52.637,0,0,1-2.725,5.153c-.651.664-.942,1.683-1.822,2.119-.447.158-.762.449-1.209.608.218.708-.325.658-.868.608a2.234,2.234,0,0,0-.649,0c-.957-.455-.925-1.9-.9-3.333a19.688,19.688,0,0,1-.307-4.242c.068-3-.764-5.091-.6-8.178-.411-5.45-.462-11.256-.608-16.965a7.462,7.462,0,0,1-3.936.6c-5.44-.915-11.277.18-16.663.305a48.958,48.958,0,0,1-4.847-1.213c-.019-.187-.048-.358-.3-.3v3.331c.967,4.386.942,9.762.906,15.151-.159,1.173.542,1.479.3,2.725a363.139,363.139,0,0,0,1.211,38.476c-.375,2.65-.329,5.727-1.211,7.879-.561.851-.556,2.268-1.814,2.423.23,1.643-.481,2.347-.3,3.936,2.468.247,3.657-.786,5.754-.906C978.944,449.708,994.215,450.973,1006.079,448.732Zm18.176-3.939c-1.353,1.176-2.935,2.118-3.937,3.638h4.845c.174-1.382-.535-1.888-.3-3.334a.425.425,0,0,0-.463-.314A1.089,1.089,0,0,0,1024.256,444.793Zm-15.147-47.257a11,11,0,0,1,.3-3.031c-.189-1.022.391-2.814-.3-3.335C1008.586,393.33,1006.317,396.277,1009.109,397.535ZM997.291,394.2c.087.086.463-.144.305-.3a.073.073,0,0,0-.053-.017C997.414,393.88,997.16,394.068,997.291,394.2Zm12.119-23.024a199.329,199.329,0,0,0-12.119,17.876,2.12,2.12,0,0,1,1.519,1.514c-.631.078-.083,1.33-.608,1.513,0,.454-1.127,1.24-.3,1.518a17.124,17.124,0,0,1,3.029-3.031c1.047-2.589,2.869-4.4,3.939-6.967a19.446,19.446,0,0,0,2.119-3.334c.57-.338.645-1.174,1.212-1.515.039-.875,1.292-.525,1.211-1.516a27.962,27.962,0,0,0,.3-5.755c-.015-.161-.037-.314-.214-.314A.425.425,0,0,0,1009.41,371.175Zm-.6,11.813c-1,2.744-2.886,4.59-3.939,7.273.551.66.29,2.137,1.211,2.426.635-1.159,1.578-3.369,3.331-2.426v-6.97a.417.417,0,0,0-.457-.314A1.088,1.088,0,0,0,1008.807,382.989Zm-14.847,2.427c.191.918-.388,2.607.305,3.026.639-1.782,1.981-2.86,2.725-4.544a34.838,34.838,0,0,0,3.03-4.544c1.238-1.283,1.916-3.128,3.332-4.242.562-1.962,2.3-2.742,3.029-4.542h-3.333C999.743,375.238,996.931,380.407,993.96,385.416Zm25.447-5.758a5.649,5.649,0,0,0,2.73,5.152c.1-2.119.558-3.885.606-6.06a8.145,8.145,0,0,1-1.149,0c-.227-.01-.455-.02-.673-.02C1020.108,378.731,1019.432,378.868,1019.407,379.658Zm-26.355-3.937c.062,1.552-.27,3.5.608,4.24.7-1.924,2.153-3.1,3.025-4.849.958-.354,1.057-1.572,1.823-2.118.364-.947,1.3-1.318,1.512-2.425h-3.335C995.449,372.256,994.332,374.071,993.052,375.721Zm.3-4.243c.044-.356.537-.687,0-.909C993.314,370.928,992.815,371.258,993.354,371.479Zm-41.505,83.011a8.668,8.668,0,0,1-4.242-2.121c-.823-1.1-.864-2.968-1.816-3.937-.7-16.472.107-34.442-1.515-49.989-.148-9.143-.938-17.641-.607-27.266a5.649,5.649,0,0,0,.3-2.424c-.141-.952.815-.8.91-1.514a8.468,8.468,0,0,1,3.636-7.877,6.505,6.505,0,0,1,2.725.3,4.9,4.9,0,0,1,2.121-.607c2.28-.064,4.655-.031,7.031,0,5.405.074,10.811.148,15.085-.912,5.658,0,10.767-.545,16.058-.91a134.326,134.326,0,0,0,17.571-.907,26.779,26.779,0,0,1,2.82,0,13.042,13.042,0,0,0,4.451-.305c.608.031,1.266.013,1.924-.005,1.835-.051,3.672-.1,4.439.918-.007.708.521.889.3,1.812-.073,2.151-2.17,2.275-3.939,2.73-.81.025-1.661.011-2.512,0a20.391,20.391,0,0,0-5.063.305c-6.906.02-13.648.912-20.6.606-4.952-.217-10.017-.464-15.147-.3-2.788.689-6.311.644-9.834.6a53.619,53.619,0,0,0-8.345.307,35.224,35.224,0,0,0-6.06-.3,20.816,20.816,0,0,0-1.815,2.425c.157,1.761-.342,4.177.3,5.452,1.365,2.272,6.78.491,6.97,3.939a3.561,3.561,0,0,1-1.819,2.725,5.259,5.259,0,0,1-2.041-.142,5.369,5.369,0,0,0-1.9-.159,2.462,2.462,0,0,0-1.816-.607c-.457-.355-.741-.876-1.517-.908.256,3.38.871,6.4.909,10a19.986,19.986,0,0,0,1.822-3.94c1.269-.648.939-2.893,3.329-2.421.732,1.271-.662,2.663-1.211,3.634-.15,1.665-.934,2.7-1.214,4.241-1.217,2.417-.775,6.493-2.117,8.785,1.142-.143,1.037-2.039,2.117-2.727a2.155,2.155,0,0,1,2.732-1.818c.8,2.674-1.481,4.749-1.821,7.272a10.189,10.189,0,0,0-1.211,3.635c-.635.619-1.818,1.823-.91,3.03.541.813.821-1.175,1.516-1.212.436-.57.676-1.342,1.819-1.211-.985,5.172-3.086,9.234-3.334,15.147.806.767.821-.96,1.516-1.211.444-.667.8-1.421,2.12-1.214-.445,3.8-2.211,6.273-3.329,9.4v4.847c.977-1.044,1.193-2.847,2.423-3.636.535-1.113,1.254-2.6,3.331-2.424.7,2.567-1.55,4.674-2.119,6.968-1.42,1.81-2.256,4.208-3.635,6.059v3.334c.089.719.815-.338.9-.608.092-.617.821-.592.911-1.211.887-.426,1.045-1.579,2.727-1.213.575,2.245-1.4,4.15-2.119,6.062-.9,2.03-2.2,3.66-2.73,6.059,1.976-.65,1.579-3.674,4.543-3.335.88,1.424-.187,3.148-.6,4.241.79.624,2.531.3,3.027,1.215a3.686,3.686,0,0,1-.3,3.332,3.39,3.39,0,0,1-2.215.623A7.021,7.021,0,0,1,951.849,454.489Zm65.743-81.8c-.214-1.119,1.294-.52,1.514-1.211a7.7,7.7,0,0,0,2.079-.144c1.209-.2,2.339-.391,3.071.448.159,1.471-1.639.986-2.425,1.512a7.292,7.292,0,0,0-1.687,0c-.355.026-.709.052-1.038.052C1018.381,373.351,1017.782,373.224,1017.592,372.689Zm-63.317-2.42c-.221-3.281,0-7.628,3.328-6.365.05,1.768-.526,2.906-.3,4.847.912.6,2.318.714,2.121,2.424a1.9,1.9,0,0,1-1.682.871A4.988,4.988,0,0,1,954.275,370.269Zm63.013-1.517c1.19-1.265,3.8-1.283,6.061-1.514.387.518,1.438.375,1.513,1.21-.292,1.184-1.539,1.6-2.956,1.6A8.682,8.682,0,0,1,1017.289,368.752Zm-1.819-3.029c-.035-1.352,1.473-1.153,2.122-1.819a17.34,17.34,0,0,0,1.94-.141c1.858-.2,3.734-.4,4.421,1.052.052,1.815-1.708,1.815-3.471,1.815-.156,0-.311,0-.465,0-.371.018-.736.029-1.089.029C1017.46,366.661,1016.191,366.466,1015.47,365.723Z" transform="translate(-943.589 -356)"/>
</svg>