<?xml version="1.0" encoding="iso-8859-1"?>
<!-- Uploaded to: SVG Repo, www.svgrepo.com, Generator: SVG Repo Mixer Tools -->
<!DOCTYPE svg PUBLIC "-//W3C//DTD SVG 1.1//EN" "http://www.w3.org/Graphics/SVG/1.1/DTD/svg11.dtd">
<svg fill="#000000" version="1.1" id="Capa_1" xmlns="http://www.w3.org/2000/svg" xmlns:xlink="http://www.w3.org/1999/xlink" 
	 width="800px" height="800px" viewBox="0 0 29.532 29.532"
	 xml:space="preserve">
<g>
	<g>
		<path d="M12.646,8.563l-2.42,12.696l-0.001-0.001L0,22.772l13.641,4.896l12.146-1.633l3.745-15.815L12.646,8.563z M10.246,25.759
			L6.897,24.48l1.614-0.215l3.756,1.255L10.246,25.759z M24.678,24.709l-13.512-3.823l2.171-11.205l14.496,1.703L24.678,24.709z"/>
		<path d="M20.605,14.709l-1.387,1.001l1.633,5.832l1.424-1.03l-0.269-0.808l1.466-1.059l0.668,0.519l1.471-1.062L20.605,14.709z
			 M21.604,18.494l-0.58-1.74l0.014-0.011l1.439,1.122L21.604,18.494z"/>
		<path d="M0.742,9.974l0.11,1.113l-0.485,0.197l0.11,1.121l3.38-1.625L3.752,9.725L0.117,8.781l0.109,1.085L0.742,9.974z
			 M2.63,10.367l0.001,0.009l-1.048,0.422l-0.065-0.664L2.63,10.367z"/>
		<path d="M10.112,7.551c0.189,0.087,0.381,0.139,0.576,0.155c0.195,0.015,0.389-0.012,0.579-0.08
			c0.19-0.07,0.365-0.192,0.527-0.368c0.117-0.128,0.201-0.257,0.256-0.386c0.055-0.13,0.086-0.255,0.095-0.377
			c0.007-0.121-0.004-0.237-0.035-0.351c-0.033-0.112-0.076-0.218-0.131-0.315c0.196,0.047,0.381,0.054,0.556,0.02
			c0.174-0.032,0.341-0.138,0.501-0.315c0.08-0.088,0.152-0.197,0.217-0.326c0.063-0.131,0.095-0.278,0.091-0.442
			c-0.003-0.164-0.052-0.341-0.145-0.53c-0.095-0.19-0.255-0.389-0.486-0.598l-1.922-1.745l-3.184,3.51L9.596,7.21
			C9.752,7.348,9.924,7.463,10.112,7.551z M11.114,3.711l0.57,0.518c0.112,0.102,0.185,0.2,0.22,0.297
			c0.034,0.098,0.012,0.189-0.069,0.277c-0.104,0.116-0.207,0.163-0.308,0.143c-0.102-0.02-0.21-0.081-0.323-0.186l-0.57-0.519
			L11.114,3.711z M10.04,4.896l0.679,0.616C10.972,5.739,11,5.96,10.808,6.173c-0.063,0.07-0.125,0.115-0.186,0.137
			c-0.063,0.021-0.125,0.028-0.187,0.017c-0.062-0.011-0.121-0.034-0.182-0.071c-0.06-0.036-0.117-0.08-0.173-0.131L9.446,5.549
			L10.04,4.896z"/>
		<path d="M6.453,12.267c0.143,0.21,0.309,0.383,0.494,0.521c0.188,0.139,0.39,0.232,0.602,0.279
			c0.213,0.05,0.435,0.052,0.665,0.007s0.46-0.146,0.689-0.303c0.207-0.142,0.367-0.301,0.483-0.48
			c0.114-0.179,0.188-0.362,0.221-0.55c0.033-0.188,0.03-0.369-0.008-0.55c-0.04-0.179-0.107-0.341-0.204-0.483l-0.86,0.586
			c0.033,0.075,0.057,0.149,0.074,0.223c0.018,0.073,0.023,0.145,0.016,0.21c-0.007,0.066-0.027,0.131-0.063,0.188
			c-0.036,0.06-0.09,0.114-0.165,0.166c-0.103,0.07-0.204,0.105-0.304,0.109c-0.1,0.001-0.195-0.021-0.287-0.068
			c-0.092-0.044-0.178-0.109-0.26-0.189c-0.081-0.079-0.155-0.167-0.22-0.262c-0.064-0.095-0.12-0.195-0.164-0.301
			c-0.045-0.105-0.072-0.208-0.082-0.311c-0.009-0.101,0.005-0.199,0.042-0.292c0.039-0.091,0.108-0.172,0.212-0.242
			c0.092-0.062,0.176-0.095,0.257-0.099c0.08-0.005,0.151,0.003,0.218,0.023c0.065,0.023,0.121,0.054,0.165,0.091
			c0.045,0.036,0.081,0.067,0.103,0.09l0.851-0.581C8.645,9.717,8.332,9.526,7.985,9.478C7.638,9.428,7.271,9.536,6.876,9.801
			c-0.22,0.149-0.393,0.32-0.521,0.513c-0.126,0.191-0.209,0.395-0.246,0.61s-0.027,0.438,0.031,0.667
			C6.196,11.82,6.301,12.046,6.453,12.267z"/>
		<path d="M2.239,15.998c0.025-0.027,0.044-0.05,0.059-0.062l-0.362-0.539c-0.21,0.176-0.333,0.371-0.365,0.589
			c-0.032,0.218,0.033,0.451,0.198,0.702c0.094,0.139,0.2,0.248,0.321,0.33c0.12,0.082,0.247,0.135,0.383,0.158
			c0.136,0.024,0.276,0.021,0.421-0.016s0.287-0.1,0.428-0.193c0.134-0.089,0.243-0.192,0.332-0.31
			c0.088-0.118,0.146-0.244,0.179-0.379c0.031-0.134,0.034-0.271,0.007-0.417c-0.026-0.146-0.088-0.292-0.187-0.438
			c-0.088-0.133-0.188-0.233-0.299-0.308c-0.113-0.072-0.228-0.12-0.346-0.142c-0.118-0.022-0.235-0.021-0.348,0.004
			c-0.114,0.023-0.215,0.065-0.306,0.126l0.365,0.544c0.047-0.02,0.095-0.035,0.141-0.046s0.091-0.014,0.133-0.01
			c0.042,0.006,0.081,0.019,0.118,0.043c0.037,0.021,0.071,0.056,0.104,0.104c0.043,0.065,0.065,0.131,0.066,0.192
			c0.001,0.062-0.015,0.123-0.043,0.18c-0.029,0.06-0.07,0.112-0.121,0.164c-0.051,0.052-0.106,0.097-0.167,0.137
			c-0.06,0.04-0.123,0.075-0.19,0.103c-0.065,0.026-0.132,0.045-0.196,0.051C2.5,16.57,2.437,16.561,2.381,16.537
			c-0.059-0.024-0.109-0.068-0.153-0.136c-0.038-0.058-0.06-0.11-0.061-0.162c-0.002-0.05,0.001-0.096,0.017-0.137
			C2.198,16.06,2.216,16.026,2.239,15.998z"/>
		<path d="M17.203,18.507c-0.087-0.131-0.188-0.232-0.299-0.308c-0.112-0.07-0.229-0.12-0.346-0.141
			c-0.119-0.023-0.232-0.022-0.348,0.002c-0.113,0.023-0.215,0.065-0.307,0.126l0.363,0.544c0.049-0.02,0.096-0.035,0.144-0.045
			c0.046-0.01,0.092-0.014,0.132-0.009c0.043,0.005,0.081,0.019,0.118,0.041c0.038,0.021,0.071,0.057,0.104,0.104
			c0.045,0.066,0.065,0.13,0.067,0.191c0,0.062-0.015,0.123-0.045,0.181c-0.03,0.059-0.067,0.112-0.12,0.163
			c-0.05,0.053-0.107,0.096-0.168,0.138c-0.061,0.04-0.123,0.074-0.189,0.103c-0.065,0.028-0.131,0.045-0.197,0.05
			c-0.062,0.006-0.123-0.004-0.182-0.028c-0.06-0.023-0.109-0.068-0.152-0.135c-0.038-0.058-0.059-0.11-0.062-0.161
			c-0.003-0.052,0.003-0.098,0.017-0.137c0.016-0.043,0.033-0.076,0.058-0.104c0.022-0.027,0.042-0.051,0.058-0.063l-0.361-0.538
			c-0.211,0.176-0.332,0.371-0.364,0.589c-0.033,0.218,0.033,0.452,0.196,0.701c0.095,0.14,0.201,0.25,0.322,0.331
			c0.119,0.081,0.248,0.135,0.383,0.158c0.136,0.022,0.275,0.02,0.42-0.016c0.146-0.034,0.287-0.1,0.429-0.193
			c0.133-0.09,0.243-0.193,0.331-0.31c0.088-0.118,0.148-0.244,0.18-0.38c0.031-0.134,0.034-0.271,0.008-0.417
			C17.365,18.799,17.302,18.653,17.203,18.507z"/>
		<path d="M1.925,5.081C2.057,5.226,2.202,5.345,2.36,5.442c0.157,0.096,0.336,0.144,0.532,0.142l0.009,0.01
			C2.865,5.62,2.83,5.654,2.795,5.697C2.759,5.741,2.729,5.783,2.707,5.826l0.831,0.917c0.028-0.12,0.086-0.229,0.169-0.322
			c0.084-0.098,0.171-0.185,0.259-0.264l0.966-0.875C5.045,5.18,5.15,5.075,5.252,4.963c0.1-0.109,0.164-0.24,0.189-0.389
			C5.464,4.426,5.435,4.251,5.35,4.053c-0.084-0.2-0.252-0.441-0.508-0.722c-0.125-0.139-0.26-0.272-0.407-0.396
			C4.291,2.812,4.138,2.716,3.98,2.649c-0.159-0.064-0.323-0.09-0.493-0.074C3.316,2.592,3.145,2.673,2.974,2.817L3.73,3.652
			c0.024-0.021,0.055-0.041,0.092-0.058C3.859,3.577,3.9,3.571,3.949,3.574c0.047,0.003,0.098,0.021,0.15,0.05
			C4.154,3.651,4.21,3.701,4.276,3.771C4.34,3.841,4.385,3.926,4.407,4.019C4.43,4.109,4.403,4.191,4.323,4.263
			c-0.074,0.069-0.148,0.088-0.221,0.06C4.029,4.295,3.961,4.257,3.893,4.207C3.81,4.145,3.72,4.07,3.623,3.985
			S3.424,3.816,3.316,3.734C3.21,3.651,3.098,3.577,2.983,3.51C2.867,3.444,2.749,3.401,2.625,3.376
			C2.502,3.353,2.379,3.357,2.257,3.388C2.133,3.42,2.009,3.491,1.887,3.604c-0.124,0.113-0.212,0.23-0.261,0.355
			C1.575,4.083,1.556,4.21,1.565,4.34c0.009,0.129,0.046,0.255,0.108,0.38C1.736,4.844,1.82,4.966,1.925,5.081z M2.752,4.488
			C2.83,4.416,2.909,4.391,2.99,4.414c0.079,0.02,0.177,0.071,0.292,0.149C3.351,4.609,3.424,4.656,3.493,4.7
			C3.564,4.746,3.64,4.784,3.716,4.813L3.498,5.01C3.367,5.117,3.241,5.162,3.117,5.146C2.992,5.129,2.883,5.069,2.79,4.967
			C2.716,4.885,2.677,4.798,2.674,4.703C2.672,4.609,2.697,4.538,2.752,4.488z"/>
		<path d="M17.165,5.717c-0.015-0.023-0.022-0.051-0.031-0.082c-0.008-0.032-0.007-0.068,0.005-0.105
			c0.01-0.037,0.03-0.075,0.062-0.113c0.031-0.038,0.078-0.077,0.146-0.117c0.066-0.042,0.141-0.064,0.219-0.068
			c0.076-0.002,0.137,0.032,0.184,0.105c0.041,0.072,0.045,0.135,0.014,0.189c-0.035,0.053-0.076,0.102-0.125,0.148
			c-0.064,0.057-0.139,0.118-0.223,0.182s-0.166,0.134-0.25,0.205c-0.081,0.074-0.158,0.151-0.229,0.232
			c-0.072,0.082-0.127,0.17-0.166,0.267c-0.037,0.094-0.053,0.194-0.047,0.297c0.004,0.104,0.043,0.214,0.112,0.331
			c0.071,0.117,0.153,0.205,0.244,0.265c0.093,0.06,0.19,0.095,0.297,0.108c0.104,0.012,0.211,0.002,0.32-0.028
			c0.11-0.03,0.222-0.08,0.327-0.145c0.14-0.083,0.259-0.181,0.358-0.292c0.103-0.111,0.167-0.246,0.197-0.405l0.009-0.005
			c0.018,0.033,0.038,0.068,0.066,0.103c0.031,0.035,0.059,0.066,0.09,0.089l0.865-0.52c-0.092-0.042-0.168-0.105-0.233-0.188
			c-0.063-0.082-0.119-0.166-0.168-0.248L18.66,5.01c-0.062-0.105-0.133-0.208-0.206-0.307c-0.072-0.099-0.166-0.168-0.28-0.212
			c-0.115-0.043-0.261-0.047-0.434-0.011c-0.174,0.036-0.391,0.133-0.657,0.295c-0.131,0.078-0.259,0.165-0.381,0.263
			C16.58,5.136,16.48,5.243,16.4,5.361c-0.076,0.116-0.121,0.244-0.137,0.382c-0.014,0.14,0.024,0.289,0.113,0.449L17.165,5.717z
			 M17.969,6.07c0.047-0.048,0.09-0.103,0.125-0.159l0.123,0.207c0.066,0.12,0.082,0.229,0.049,0.326
			c-0.033,0.098-0.098,0.175-0.193,0.234c-0.078,0.046-0.154,0.063-0.229,0.051c-0.077-0.013-0.131-0.046-0.161-0.097
			c-0.045-0.074-0.053-0.142-0.021-0.203c0.026-0.061,0.085-0.131,0.163-0.209C17.873,6.171,17.92,6.122,17.969,6.07z"/>
		<path d="M6.75,18.911h0.009c0.029,0.039,0.061,0.077,0.098,0.116c0.036,0.04,0.081,0.075,0.135,0.106
			c0.054,0.031,0.12,0.058,0.199,0.078c0.079,0.021,0.174,0.031,0.288,0.031c0.174,0,0.326-0.038,0.457-0.115
			c0.128-0.077,0.234-0.179,0.321-0.305c0.085-0.125,0.148-0.265,0.192-0.42c0.043-0.155,0.063-0.31,0.063-0.464
			c0-0.146-0.016-0.294-0.047-0.446c-0.032-0.151-0.088-0.289-0.167-0.413c-0.078-0.123-0.186-0.224-0.322-0.303
			c-0.136-0.078-0.307-0.119-0.512-0.119c-0.142,0-0.272,0.03-0.389,0.087c-0.117,0.061-0.211,0.143-0.285,0.245H6.78v-1.194H5.845
			v3.387H6.75V18.911z M6.768,17.73c0.009-0.072,0.032-0.138,0.063-0.194c0.031-0.058,0.074-0.104,0.125-0.14
			c0.053-0.037,0.122-0.056,0.208-0.056c0.084,0,0.153,0.019,0.206,0.056c0.052,0.036,0.094,0.082,0.125,0.14
			c0.032,0.058,0.053,0.122,0.064,0.194c0.011,0.071,0.016,0.146,0.016,0.219c0,0.072-0.005,0.146-0.016,0.219
			c-0.012,0.071-0.032,0.138-0.064,0.195c-0.031,0.06-0.073,0.105-0.125,0.143c-0.053,0.037-0.122,0.056-0.206,0.056
			c-0.086,0-0.155-0.019-0.208-0.056c-0.052-0.037-0.095-0.083-0.126-0.143c-0.03-0.059-0.054-0.124-0.063-0.195
			c-0.012-0.074-0.017-0.146-0.017-0.219C6.75,17.875,6.755,17.801,6.768,17.73z"/>
		<path d="M23.003,4.157l-0.244-0.112l0.003-0.008c0.047-0.011,0.096-0.024,0.146-0.041c0.051-0.017,0.102-0.042,0.152-0.079
			c0.051-0.036,0.103-0.085,0.153-0.148c0.052-0.063,0.101-0.146,0.147-0.25c0.072-0.159,0.099-0.314,0.084-0.464
			c-0.02-0.149-0.064-0.289-0.146-0.418c-0.075-0.131-0.178-0.248-0.3-0.351c-0.124-0.102-0.257-0.187-0.398-0.248
			c-0.131-0.061-0.271-0.108-0.425-0.143c-0.149-0.035-0.3-0.04-0.444-0.02c-0.144,0.021-0.282,0.078-0.408,0.168
			c-0.131,0.093-0.235,0.232-0.321,0.418c-0.06,0.13-0.086,0.261-0.081,0.39c0.005,0.132,0.04,0.252,0.104,0.361L21.021,3.22
			l-1.088-0.494L19.545,3.58l3.082,1.402L23.003,4.157z M22.475,3.69c-0.056,0.032-0.115,0.051-0.183,0.055
			c-0.065,0.004-0.134-0.004-0.205-0.022c-0.071-0.02-0.139-0.047-0.206-0.075c-0.064-0.031-0.131-0.066-0.191-0.107
			c-0.062-0.038-0.11-0.085-0.149-0.137c-0.04-0.053-0.063-0.109-0.075-0.172c-0.013-0.063,0-0.133,0.035-0.211
			c0.035-0.078,0.08-0.133,0.135-0.165c0.055-0.034,0.114-0.052,0.18-0.056c0.065-0.006,0.135,0.002,0.205,0.02
			c0.069,0.021,0.139,0.046,0.205,0.076c0.066,0.029,0.129,0.065,0.19,0.106c0.062,0.039,0.112,0.086,0.151,0.14
			c0.041,0.053,0.066,0.109,0.078,0.172c0.013,0.063,0,0.133-0.035,0.211C22.574,3.603,22.527,3.656,22.475,3.69z"/>
		<path d="M17.218,12.619c-0.122-0.077-0.247-0.121-0.378-0.134c-0.13-0.013-0.253,0.007-0.371,0.056l-0.007-0.005l0.636-1.013
			l-0.796-0.498l-1.8,2.867l0.768,0.481l0.144-0.229l0.008,0.004c0.005,0.048,0.011,0.097,0.021,0.149
			c0.011,0.052,0.029,0.106,0.059,0.162c0.029,0.055,0.07,0.112,0.127,0.173c0.057,0.06,0.133,0.119,0.229,0.18
			c0.146,0.094,0.297,0.141,0.447,0.145c0.151,0.003,0.295-0.025,0.434-0.086c0.141-0.061,0.269-0.146,0.388-0.253
			c0.119-0.108,0.22-0.229,0.301-0.359c0.077-0.123,0.144-0.258,0.197-0.403s0.08-0.291,0.078-0.438
			c-0.001-0.146-0.038-0.288-0.112-0.428C17.516,12.853,17.391,12.728,17.218,12.619z M16.727,13.575
			c-0.031,0.067-0.064,0.132-0.103,0.193c-0.04,0.062-0.083,0.119-0.131,0.175c-0.05,0.057-0.101,0.102-0.159,0.133
			c-0.059,0.033-0.119,0.051-0.184,0.055c-0.062,0.003-0.131-0.02-0.202-0.063c-0.071-0.046-0.12-0.097-0.146-0.156
			c-0.024-0.058-0.034-0.121-0.03-0.188c0.006-0.064,0.021-0.132,0.052-0.2c0.028-0.066,0.063-0.131,0.103-0.192
			c0.037-0.062,0.081-0.12,0.131-0.177c0.047-0.056,0.101-0.098,0.156-0.131c0.057-0.031,0.116-0.048,0.182-0.051
			c0.062-0.003,0.131,0.018,0.203,0.064c0.071,0.044,0.121,0.096,0.146,0.154c0.024,0.06,0.036,0.121,0.032,0.185
			C16.77,13.442,16.754,13.509,16.727,13.575z"/>
		<path d="M25.139,7.315c0.195,0.185,0.426,0.325,0.688,0.426c0.263,0.102,0.546,0.151,0.85,0.151c0.268,0,0.521-0.038,0.762-0.112
			c0.239-0.074,0.451-0.185,0.633-0.329c0.184-0.146,0.334-0.323,0.457-0.534c0.121-0.211,0.199-0.453,0.234-0.728h-1.463
			c-0.015,0.161-0.076,0.298-0.186,0.415c-0.107,0.115-0.242,0.174-0.406,0.174c-0.148,0-0.266-0.027-0.354-0.086
			c-0.086-0.056-0.152-0.131-0.201-0.225c-0.045-0.093-0.075-0.198-0.092-0.316c-0.016-0.118-0.022-0.24-0.022-0.363
			c0-0.124,0.008-0.246,0.022-0.363c0.017-0.118,0.049-0.226,0.094-0.318c0.047-0.092,0.113-0.169,0.201-0.228
			c0.088-0.061,0.205-0.089,0.355-0.089c0.16,0,0.289,0.043,0.387,0.131c0.1,0.082,0.155,0.21,0.172,0.379h1.455
			c-0.027-0.278-0.098-0.519-0.215-0.724c-0.115-0.204-0.267-0.373-0.447-0.508c-0.185-0.133-0.394-0.231-0.631-0.297
			c-0.238-0.063-0.488-0.097-0.752-0.097c-0.304,0-0.588,0.052-0.852,0.151c-0.264,0.101-0.492,0.242-0.688,0.431
			c-0.197,0.184-0.353,0.408-0.465,0.669c-0.113,0.26-0.171,0.547-0.171,0.862c0,0.319,0.058,0.607,0.169,0.866
			C24.787,6.912,24.941,7.133,25.139,7.315z"/>
	</g>
</g>
</svg>